<svg width="28" height="28" viewBox="0 0 28 28" fill="none" xmlns="http://www.w3.org/2000/svg">
<rect width="28" height="28" fill="#1E1E1E"/>
<path d="M-5124 -7558C-5124 -7584.51 -5102.51 -7606 -5076 -7606H8805C8831.51 -7606 8853 -7584.51 8853 -7558V10510C8853 10536.5 8831.51 10558 8805 10558H-5076C-5102.51 10558 -5124 10536.5 -5124 10510V-7558Z" fill="#F4E8EE"/>
<path d="M-5076 -7605H8805V-7607H-5076V-7605ZM8852 -7558V10510H8854V-7558H8852ZM8805 10557H-5076V10559H8805V10557ZM-5123 10510V-7558H-5125V10510H-5123ZM-5076 10557C-5101.96 10557 -5123 10536 -5123 10510H-5125C-5125 10537.1 -5103.06 10559 -5076 10559V10557ZM8852 10510C8852 10536 8830.96 10557 8805 10557V10559C8832.06 10559 8854 10537.1 8854 10510H8852ZM8805 -7605C8830.96 -7605 8852 -7583.96 8852 -7558H8854C8854 -7585.06 8832.06 -7607 8805 -7607V-7605ZM-5076 -7607C-5103.06 -7607 -5125 -7585.06 -5125 -7558H-5123C-5123 -7583.96 -5101.96 -7605 -5076 -7605V-7607Z" fill="white" fill-opacity="0.1"/>
<g clip-path="url(#clip0_17_4912)">
<rect x="-91" y="-765" width="430" height="932" rx="48" fill="#E0F0E4"/>
<g clip-path="url(#clip1_17_4912)">
<rect x="-76" y="-5" width="400" height="60" rx="24" fill="white"/>
<path d="M26.2939 11.0863C26.2939 18.5472 15.2315 24.5863 14.7604 24.8357C14.6362 24.9025 14.4974 24.9374 14.3564 24.9374C14.2154 24.9374 14.0766 24.9025 13.9525 24.8357C13.5954 24.6438 7.17901 21.1383 4.0742 16.2141C4.03415 16.1496 4.01206 16.0755 4.01019 15.9996C4.00833 15.9237 4.02676 15.8487 4.0636 15.7823C4.10043 15.7159 4.15433 15.6606 4.21971 15.622C4.2851 15.5834 4.3596 15.563 4.43552 15.5628H8.38768C8.5281 15.5629 8.66636 15.5283 8.7902 15.4621C8.91403 15.3959 9.0196 15.3002 9.09753 15.1834L10.093 13.6912L12.7939 17.7414C12.8974 17.8966 13.0489 18.0136 13.2252 18.0744C13.4016 18.1353 13.593 18.1366 13.7702 18.0782C13.9581 18.0146 14.119 17.8891 14.2264 17.7222L15.6653 15.5628H17.7671C17.884 15.5631 17.9997 15.5393 18.107 15.493C18.2143 15.4466 18.311 15.3787 18.3909 15.2934C18.4709 15.2082 18.5325 15.1074 18.5719 14.9973C18.6112 14.8873 18.6275 14.7703 18.6198 14.6537C18.6007 14.4345 18.4995 14.2306 18.3364 14.083C18.1733 13.9353 17.9605 13.8548 17.7405 13.8575H15.2091C15.0687 13.8574 14.9304 13.892 14.8066 13.9582C14.6827 14.0244 14.5772 14.1201 14.4992 14.2369L13.5037 15.7291L10.8029 11.6789C10.6993 11.5234 10.5476 11.4063 10.3711 11.3455C10.1945 11.2846 10.0028 11.2834 9.8255 11.3421C9.63803 11.4061 9.47766 11.5315 9.37039 11.6981L7.9315 13.8575H3.22153C3.13041 13.8577 3.04161 13.8288 2.96814 13.7749C2.89468 13.721 2.84042 13.645 2.81331 13.558C2.55625 12.7591 2.42325 11.9255 2.41895 11.0863C2.42092 9.33426 3.11778 7.65458 4.35664 6.41572C5.59549 5.17686 7.27518 4.48 9.02719 4.47803C11.2282 4.47803 13.1552 5.4245 14.3564 7.02433C15.5576 5.4245 17.4847 4.47803 19.6856 4.47803C21.4376 4.48 23.1173 5.17686 24.3562 6.41572C25.5951 7.65458 26.2919 9.33426 26.2939 11.0863Z" fill="#F64783"/>
</g>
</g>
<defs>
<clipPath id="clip0_17_4912">
<rect x="-91" y="-765" width="430" height="932" rx="48" fill="white"/>
</clipPath>
<clipPath id="clip1_17_4912">
<rect x="-76" y="-5" width="400" height="60" rx="24" fill="white"/>
</clipPath>
</defs>
</svg>
