<svg width="28" height="29" viewBox="0 0 28 29" fill="none" xmlns="http://www.w3.org/2000/svg">
<g id="tabler:bike" clip-path="url(#clip0_340_5651)">
<path id="Vector" d="M14.8115 22.3334V17.742L11.3679 14.2985L17.1072 9.70711L19.4029 13.1507H22.8464M3.33301 21.1856C3.33301 22.0989 3.69581 22.9748 4.3416 23.6205C4.98739 24.2663 5.86327 24.6291 6.77655 24.6291C7.68983 24.6291 8.56571 24.2663 9.2115 23.6205C9.85729 22.9748 10.2201 22.0989 10.2201 21.1856C10.2201 20.2723 9.85729 19.3964 9.2115 18.7506C8.56571 18.1048 7.68983 17.742 6.77655 17.742C5.86327 17.742 4.98739 18.1048 4.3416 18.7506C3.69581 19.3964 3.33301 20.2723 3.33301 21.1856ZM19.4029 21.1856C19.4029 22.0989 19.7657 22.9748 20.4115 23.6205C21.0573 24.2663 21.9331 24.6291 22.8464 24.6291C23.7597 24.6291 24.6356 24.2663 25.2814 23.6205C25.9272 22.9748 26.29 22.0989 26.29 21.1856C26.29 20.2723 25.9272 19.3964 25.2814 18.7506C24.6356 18.1048 23.7597 17.742 22.8464 17.742C21.9331 17.742 21.0573 18.1048 20.4115 18.7506C19.7657 19.3964 19.4029 20.2723 19.4029 21.1856ZM19.4029 6.26357C19.4029 6.568 19.5238 6.85996 19.7391 7.07522C19.9543 7.29048 20.2463 7.41142 20.5507 7.41142C20.8551 7.41142 21.1471 7.29048 21.3624 7.07522C21.5776 6.85996 21.6986 6.568 21.6986 6.26357C21.6986 5.95914 21.5776 5.66718 21.3624 5.45192C21.1471 5.23666 20.8551 5.11572 20.5507 5.11572C20.2463 5.11572 19.9543 5.23666 19.7391 5.45192C19.5238 5.66718 19.4029 5.95914 19.4029 6.26357Z" stroke="#F88837" stroke-width="2.09836" stroke-linecap="round" stroke-linejoin="round"/>
</g>
<defs>
<clipPath id="clip0_340_5651">
<rect width="27.5483" height="27.5483" fill="white" transform="translate(0.451172 0.524414)"/>
</clipPath>
</defs>
</svg>
