<svg width="24" height="24" viewBox="0 0 24 24" fill="none" xmlns="http://www.w3.org/2000/svg">
<g clip-path="url(#clip0_1184_10716)">
<path fill-rule="evenodd" clip-rule="evenodd" d="M11.5009 1.28464L12.4065 0.376029C12.1662 0.135246 11.8405 0 11.5009 0C11.1612 0 10.8355 0.135246 10.5952 0.376029L11.5009 1.28464ZM11.5009 1.28464L10.5952 0.376029L10.5918 0.377744L10.5867 0.384601L10.5661 0.403459L10.4927 0.480606L10.2193 0.763476C8.84187 2.21665 7.55337 3.7521 6.36082 5.36141C5.30821 6.78947 4.23167 8.43012 3.41488 10.1102C2.60662 11.7714 2 13.5732 2 15.2962L2.00171 15.3682C2.13698 17.7815 3.21809 20.0432 5.00917 21.6599C6.84954 23.3245 9.6434 24 11.5009 24C13.3549 24 16.1488 23.3245 17.9925 21.6616C18.888 20.8524 19.6148 19.8733 20.131 18.7807C20.6472 17.6882 20.9425 16.5039 21 15.2962C21 13.5732 20.3951 11.7714 19.5851 10.1085C18.7683 8.42841 17.6935 6.78947 16.6392 5.36141C15.3684 3.64714 13.9888 2.01682 12.509 0.480606L12.4356 0.403459L12.4151 0.384601L12.4099 0.377744L12.4065 0.376029L11.5009 1.28464Z" fill="#82AB6F"/>
<path d="M11.0031 18.108C10.2031 18.108 9.51109 17.932 8.92709 17.58C8.34309 17.22 7.88709 16.716 7.55909 16.068C7.23909 15.412 7.07909 14.644 7.07909 13.764C7.07909 13.1 7.17109 12.504 7.35509 11.976C7.53909 11.44 7.79909 10.984 8.13509 10.608C8.47909 10.224 8.89109 9.932 9.37109 9.732C9.85909 9.532 10.4031 9.432 11.0031 9.432C11.8031 9.432 12.4951 9.608 13.0791 9.96C13.6631 10.312 14.1151 10.812 14.4351 11.46C14.7551 12.108 14.9151 12.872 14.9151 13.752C14.9151 14.416 14.8231 15.016 14.6391 15.552C14.4551 16.088 14.1911 16.548 13.8471 16.932C13.5111 17.316 13.1031 17.608 12.6231 17.808C12.1431 18.008 11.6031 18.108 11.0031 18.108ZM11.0031 17.124C11.5791 17.124 12.0711 16.992 12.4791 16.728C12.8871 16.464 13.1991 16.08 13.4151 15.576C13.6391 15.072 13.7511 14.468 13.7511 13.764C13.7511 12.7 13.5111 11.876 13.0311 11.292C12.5591 10.708 11.8831 10.416 11.0031 10.416C10.4271 10.416 9.93109 10.548 9.51509 10.812C9.10709 11.068 8.79509 11.448 8.57909 11.952C8.36309 12.448 8.25509 13.052 8.25509 13.764C8.25509 14.82 8.49509 15.644 8.97509 16.236C9.45509 16.828 10.1311 17.124 11.0031 17.124Z" fill="white"/>
<path d="M15.246 19.856C15.1873 19.856 15.1433 19.8427 15.114 19.816C15.0873 19.7867 15.074 19.748 15.074 19.7C15.074 19.6707 15.0807 19.6427 15.094 19.616C15.11 19.5867 15.1313 19.5573 15.158 19.528L16.054 18.568C16.19 18.4213 16.2873 18.2867 16.346 18.164C16.4073 18.0387 16.438 17.912 16.438 17.784C16.438 17.624 16.3887 17.5027 16.29 17.42C16.194 17.3347 16.0527 17.292 15.866 17.292C15.746 17.292 15.6327 17.3107 15.526 17.348C15.4193 17.3853 15.3167 17.4427 15.218 17.52C15.1833 17.5467 15.1513 17.5587 15.122 17.556C15.0953 17.5533 15.0713 17.5427 15.05 17.524C15.0287 17.5053 15.014 17.4813 15.006 17.452C14.998 17.4227 14.998 17.3933 15.006 17.364C15.0167 17.3347 15.038 17.308 15.07 17.284C15.174 17.1987 15.2993 17.1307 15.446 17.08C15.5927 17.0267 15.742 17 15.894 17C16.0833 17 16.2433 17.0293 16.374 17.088C16.5047 17.1467 16.6033 17.2333 16.67 17.348C16.7367 17.46 16.77 17.5973 16.77 17.76C16.77 17.872 16.7513 17.9827 16.714 18.092C16.6793 18.1987 16.6247 18.308 16.55 18.42C16.478 18.532 16.3833 18.648 16.266 18.768L15.414 19.668V19.576H16.762C16.8127 19.576 16.85 19.588 16.874 19.612C16.9007 19.6333 16.914 19.6667 16.914 19.712C16.914 19.76 16.9007 19.796 16.874 19.82C16.85 19.844 16.8127 19.856 16.762 19.856H15.246Z" fill="white"/>
</g>
<defs>
<clipPath id="clip0_1184_10716">
<rect width="24" height="24" fill="white"/>
</clipPath>
</defs>
</svg>
