<svg width="24" height="24" viewBox="0 0 24 24" fill="none" xmlns="http://www.w3.org/2000/svg">
<path d="M11 22H10.125C9.87497 22 9.6583 21.9167 9.47497 21.75C9.29164 21.5833 9.1833 21.375 9.14997 21.125L8.84997 18.8C8.6333 18.7167 8.42914 18.6167 8.23747 18.5C8.0458 18.3833 7.8583 18.2583 7.67497 18.125L5.49997 19.025C5.26664 19.125 5.0333 19.1375 4.79997 19.0625C4.56664 18.9875 4.3833 18.8417 4.24997 18.625L2.39997 15.4C2.26664 15.1833 2.22497 14.95 2.27497 14.7C2.32497 14.45 2.44997 14.25 2.64997 14.1L4.52497 12.675C4.5083 12.5583 4.49997 12.4458 4.49997 12.3375V11.6625C4.49997 11.5542 4.5083 11.4417 4.52497 11.325L2.64997 9.9C2.44997 9.75 2.32497 9.55 2.27497 9.3C2.22497 9.05 2.26664 8.81667 2.39997 8.6L4.24997 5.375C4.3833 5.15833 4.56664 5.0125 4.79997 4.9375C5.0333 4.8625 5.26664 4.875 5.49997 4.975L7.67497 5.875C7.8583 5.74167 8.04997 5.61667 8.24997 5.5C8.44997 5.38333 8.64997 5.28333 8.84997 5.2L9.14997 2.875C9.1833 2.625 9.29164 2.41667 9.47497 2.25C9.6583 2.08333 9.87497 2 10.125 2H13.875C14.125 2 14.3416 2.08333 14.525 2.25C14.7083 2.41667 14.8166 2.625 14.85 2.875L15.15 5.2C15.3666 5.28333 15.5708 5.38333 15.7625 5.5C15.9541 5.61667 16.1416 5.74167 16.325 5.875L18.5 4.975C18.7333 4.875 18.9666 4.8625 19.2 4.9375C19.4333 5.0125 19.6166 5.15833 19.75 5.375L21.6 8.6C21.7333 8.81667 21.775 9.05 21.725 9.3C21.675 9.55 21.55 9.75 21.35 9.9L19.475 11.325C19.4916 11.4417 19.5 11.5542 19.5 11.6625V12H15.55C15.55 11.0333 15.2083 10.2083 14.525 9.525C13.8416 8.84167 13.0166 8.5 12.05 8.5C11.0833 8.5 10.2583 8.84167 9.57497 9.525C8.89164 10.2083 8.54997 11.0333 8.54997 12C8.54997 12.8 8.77497 13.5 9.22497 14.1C9.67497 14.7 10.2666 15.1167 11 15.35V22Z" fill="black"/>
</svg>
